<?xml version="1.0" encoding="UTF-8" standalone="no"?>
<!DOCTYPE svg PUBLIC "-//W3C//DTD SVG 1.1//EN" "http://www.w3.org/Graphics/SVG/1.1/DTD/svg11.dtd">
<svg width="100%" height="100%" viewBox="0 0 292 95" version="1.1" xmlns="http://www.w3.org/2000/svg" xmlns:xlink="http://www.w3.org/1999/xlink" xml:space="preserve" xmlns:serif="http://www.serif.com/" style="fill-rule:evenodd;clip-rule:evenodd;stroke-linecap:round;stroke-linejoin:round;stroke-miterlimit:1.5;">
    <g transform="matrix(1,0,0,1,-228.295,-205.281)">
        <g transform="matrix(1,0,0,1,-25.9052,-18.2772)">
            <g transform="matrix(0.872864,0,0,0.872864,131.985,168.395)">
                <g transform="matrix(61.426,0,0,61.426,180,141)">
                    <path d="M0.213,-0.329L0.213,-0.23L0.213,-0.135C0.214,-0.099 0.215,-0.076 0.216,-0.064C0.218,-0.053 0.22,-0.045 0.223,-0.042C0.226,-0.038 0.232,-0.035 0.241,-0.033C0.25,-0.031 0.272,-0.029 0.306,-0.027L0.31,-0.024L0.31,-0L0.306,0.004C0.223,0.001 0.177,-0 0.166,-0C0.156,-0 0.109,0.001 0.026,0.004L0.022,-0L0.022,-0.024L0.026,-0.027C0.057,-0.029 0.077,-0.03 0.087,-0.032C0.097,-0.034 0.104,-0.037 0.107,-0.04C0.111,-0.043 0.113,-0.05 0.115,-0.06C0.118,-0.069 0.119,-0.091 0.119,-0.126L0.12,-0.23L0.12,-0.456L0.119,-0.551C0.118,-0.588 0.117,-0.612 0.116,-0.623C0.115,-0.634 0.112,-0.641 0.109,-0.645C0.106,-0.648 0.1,-0.651 0.091,-0.653C0.083,-0.656 0.061,-0.657 0.026,-0.659L0.022,-0.662L0.022,-0.687L0.026,-0.69C0.164,-0.688 0.245,-0.687 0.268,-0.687C0.346,-0.687 0.425,-0.688 0.506,-0.69L0.51,-0.687C0.505,-0.67 0.502,-0.652 0.5,-0.631C0.498,-0.61 0.497,-0.581 0.495,-0.543L0.491,-0.54L0.468,-0.54L0.464,-0.543C0.464,-0.546 0.462,-0.558 0.46,-0.581C0.458,-0.599 0.456,-0.615 0.452,-0.63C0.418,-0.642 0.372,-0.647 0.312,-0.647C0.285,-0.647 0.254,-0.646 0.218,-0.642C0.215,-0.616 0.213,-0.554 0.213,-0.456L0.213,-0.372C0.254,-0.371 0.282,-0.371 0.297,-0.371C0.325,-0.371 0.349,-0.372 0.369,-0.374C0.389,-0.376 0.4,-0.378 0.404,-0.38C0.408,-0.382 0.411,-0.385 0.413,-0.391C0.415,-0.396 0.417,-0.408 0.419,-0.426L0.422,-0.453L0.426,-0.457L0.451,-0.457L0.455,-0.452L0.451,-0.345C0.451,-0.333 0.452,-0.315 0.453,-0.292C0.454,-0.265 0.455,-0.244 0.455,-0.229L0.45,-0.226L0.426,-0.226L0.422,-0.229L0.42,-0.271C0.419,-0.287 0.418,-0.299 0.416,-0.307C0.413,-0.314 0.41,-0.319 0.404,-0.321C0.399,-0.324 0.388,-0.326 0.37,-0.328C0.352,-0.33 0.324,-0.331 0.287,-0.331C0.254,-0.331 0.229,-0.33 0.213,-0.329Z" style="fill:white;fill-rule:nonzero;"/>
                </g>
            </g>
            <g transform="matrix(0.804191,0,0,0.804191,193.177,166.293)">
                <g transform="matrix(61.426,0,0,61.426,180,141)">
                    <path d="M0.169,-0.465L0.178,-0.459C0.175,-0.416 0.173,-0.362 0.173,-0.296L0.173,-0.183C0.173,-0.141 0.176,-0.112 0.182,-0.096C0.189,-0.079 0.2,-0.067 0.215,-0.058C0.231,-0.05 0.25,-0.045 0.271,-0.045C0.295,-0.045 0.316,-0.05 0.336,-0.059C0.355,-0.069 0.372,-0.082 0.385,-0.099C0.398,-0.116 0.406,-0.127 0.408,-0.133C0.41,-0.139 0.411,-0.155 0.412,-0.182L0.413,-0.237L0.413,-0.29C0.413,-0.303 0.412,-0.32 0.411,-0.343C0.41,-0.365 0.409,-0.379 0.408,-0.384C0.407,-0.389 0.405,-0.393 0.4,-0.396C0.396,-0.398 0.388,-0.399 0.375,-0.399L0.334,-0.4L0.33,-0.404L0.33,-0.425L0.333,-0.429C0.396,-0.436 0.448,-0.448 0.491,-0.465L0.5,-0.459C0.496,-0.416 0.495,-0.362 0.495,-0.296L0.495,-0.21C0.495,-0.206 0.495,-0.166 0.497,-0.091C0.498,-0.063 0.499,-0.046 0.502,-0.04C0.505,-0.034 0.509,-0.03 0.514,-0.028C0.519,-0.025 0.533,-0.024 0.557,-0.024L0.571,-0.024L0.575,-0.02L0.575,-0L0.571,0.004C0.525,0.001 0.495,-0 0.479,-0C0.459,-0 0.436,0.001 0.41,0.003L0.406,-0C0.408,-0.034 0.409,-0.062 0.41,-0.085C0.39,-0.069 0.366,-0.048 0.34,-0.021C0.33,-0.011 0.315,-0.002 0.296,0.004C0.278,0.011 0.256,0.015 0.232,0.015C0.195,0.015 0.167,0.009 0.147,-0.003C0.126,-0.014 0.112,-0.03 0.104,-0.051C0.095,-0.071 0.091,-0.106 0.091,-0.156L0.091,-0.194L0.091,-0.29C0.091,-0.303 0.091,-0.32 0.089,-0.343C0.088,-0.365 0.087,-0.379 0.086,-0.384C0.085,-0.389 0.083,-0.393 0.079,-0.396C0.074,-0.398 0.066,-0.399 0.053,-0.399L0.012,-0.4L0.008,-0.404L0.008,-0.425L0.012,-0.429C0.074,-0.436 0.126,-0.448 0.169,-0.465Z" style="fill:white;fill-rule:nonzero;"/>
                </g>
                <g transform="matrix(61.426,0,0,61.426,217.042,141)">
                    <path d="M0.18,-0.465L0.189,-0.459C0.187,-0.438 0.186,-0.412 0.185,-0.382L0.231,-0.424C0.244,-0.436 0.253,-0.444 0.257,-0.448C0.262,-0.451 0.271,-0.455 0.287,-0.459C0.303,-0.464 0.319,-0.466 0.336,-0.466C0.369,-0.466 0.397,-0.458 0.422,-0.442C0.446,-0.426 0.464,-0.404 0.476,-0.375C0.52,-0.417 0.546,-0.44 0.553,-0.445C0.56,-0.449 0.572,-0.454 0.588,-0.459C0.604,-0.463 0.62,-0.466 0.636,-0.466C0.661,-0.466 0.685,-0.46 0.707,-0.449C0.728,-0.438 0.745,-0.424 0.758,-0.406C0.771,-0.388 0.778,-0.368 0.78,-0.348C0.782,-0.327 0.783,-0.298 0.783,-0.262L0.783,-0.21C0.783,-0.205 0.784,-0.164 0.786,-0.089C0.787,-0.058 0.79,-0.04 0.796,-0.034C0.803,-0.028 0.823,-0.025 0.856,-0.025L0.86,-0.021L0.86,-0L0.856,0.004C0.815,0.001 0.787,-0 0.772,-0C0.764,-0 0.741,0.001 0.702,0.004L0.695,-0.001C0.7,-0.044 0.702,-0.099 0.702,-0.167L0.702,-0.226C0.702,-0.277 0.699,-0.314 0.694,-0.334C0.689,-0.355 0.678,-0.372 0.66,-0.385C0.642,-0.398 0.621,-0.405 0.596,-0.405C0.579,-0.405 0.562,-0.401 0.547,-0.394C0.532,-0.387 0.518,-0.377 0.506,-0.363C0.493,-0.349 0.487,-0.336 0.485,-0.324C0.484,-0.313 0.483,-0.291 0.483,-0.259L0.483,-0.198C0.483,-0.183 0.484,-0.157 0.485,-0.117C0.487,-0.078 0.488,-0.055 0.49,-0.048C0.491,-0.042 0.493,-0.037 0.496,-0.034C0.499,-0.032 0.503,-0.03 0.507,-0.029C0.511,-0.028 0.529,-0.027 0.56,-0.025L0.564,-0.021L0.564,-0L0.56,0.004C0.519,0.001 0.48,-0 0.442,-0C0.408,-0 0.368,0.001 0.325,0.004L0.321,-0L0.321,-0.021L0.325,-0.025C0.357,-0.027 0.375,-0.028 0.379,-0.029C0.383,-0.03 0.386,-0.032 0.389,-0.035C0.392,-0.038 0.395,-0.043 0.396,-0.05C0.397,-0.056 0.398,-0.077 0.4,-0.113C0.401,-0.148 0.402,-0.175 0.402,-0.193L0.402,-0.249C0.402,-0.286 0.399,-0.314 0.394,-0.334C0.389,-0.354 0.378,-0.371 0.362,-0.384C0.345,-0.398 0.324,-0.405 0.299,-0.405C0.28,-0.405 0.262,-0.401 0.246,-0.393C0.23,-0.386 0.217,-0.376 0.206,-0.365C0.196,-0.354 0.19,-0.343 0.187,-0.333C0.185,-0.324 0.184,-0.303 0.184,-0.27L0.184,-0.198C0.184,-0.183 0.184,-0.157 0.186,-0.117C0.187,-0.078 0.188,-0.055 0.19,-0.048C0.191,-0.042 0.193,-0.037 0.197,-0.034C0.2,-0.032 0.203,-0.03 0.207,-0.029C0.211,-0.028 0.229,-0.027 0.26,-0.025L0.264,-0.021L0.264,-0L0.26,0.004C0.22,0.001 0.18,-0 0.143,-0C0.105,-0 0.066,0.001 0.025,0.004L0.021,-0L0.021,-0.021L0.025,-0.025C0.057,-0.027 0.075,-0.028 0.079,-0.029C0.083,-0.03 0.087,-0.032 0.09,-0.035C0.093,-0.038 0.095,-0.043 0.096,-0.05C0.097,-0.056 0.098,-0.077 0.1,-0.113C0.101,-0.148 0.102,-0.175 0.102,-0.193L0.102,-0.29C0.102,-0.303 0.101,-0.32 0.1,-0.343C0.099,-0.365 0.098,-0.379 0.097,-0.384C0.096,-0.389 0.094,-0.393 0.089,-0.396C0.085,-0.398 0.077,-0.399 0.064,-0.399L0.023,-0.4L0.019,-0.404L0.019,-0.425L0.022,-0.429C0.085,-0.436 0.137,-0.448 0.18,-0.465Z" style="fill:white;fill-rule:nonzero;"/>
                </g>
                <g transform="matrix(61.426,0,0,61.426,271.269,141)">
                    <path d="M0.141,-0.684C0.156,-0.684 0.169,-0.678 0.18,-0.667C0.19,-0.657 0.196,-0.644 0.196,-0.628C0.196,-0.613 0.19,-0.601 0.18,-0.59C0.169,-0.579 0.156,-0.574 0.141,-0.574C0.126,-0.574 0.113,-0.579 0.102,-0.59C0.091,-0.6 0.085,-0.613 0.085,-0.628C0.085,-0.644 0.091,-0.657 0.102,-0.667C0.113,-0.678 0.126,-0.684 0.141,-0.684ZM0.182,-0.465L0.191,-0.459C0.188,-0.416 0.186,-0.362 0.186,-0.296L0.186,-0.186C0.186,-0.179 0.187,-0.156 0.188,-0.117C0.189,-0.078 0.191,-0.055 0.192,-0.049C0.194,-0.042 0.196,-0.038 0.199,-0.035C0.202,-0.032 0.205,-0.03 0.209,-0.029C0.214,-0.028 0.231,-0.027 0.262,-0.025L0.267,-0.021L0.267,-0L0.263,0.004C0.222,0.001 0.183,-0 0.145,-0C0.108,-0 0.069,0.001 0.028,0.004L0.023,-0L0.023,-0.021L0.028,-0.025C0.059,-0.027 0.077,-0.028 0.081,-0.029C0.085,-0.03 0.089,-0.032 0.092,-0.035C0.095,-0.038 0.097,-0.043 0.098,-0.05C0.1,-0.056 0.101,-0.077 0.102,-0.113C0.104,-0.148 0.104,-0.175 0.104,-0.193L0.104,-0.29C0.104,-0.303 0.104,-0.32 0.103,-0.343C0.101,-0.365 0.1,-0.379 0.099,-0.384C0.099,-0.389 0.096,-0.393 0.092,-0.396C0.088,-0.398 0.079,-0.399 0.066,-0.399L0.025,-0.4L0.021,-0.404L0.021,-0.425L0.025,-0.429C0.087,-0.436 0.139,-0.448 0.182,-0.465Z" style="fill:white;fill-rule:nonzero;"/>
                </g>
                <g transform="matrix(61.426,0,0,61.426,289.145,141)">
                    <path d="M0.022,-0.21L0.022,-0.217L0.044,-0.282L0.305,-0.282L0.305,-0.275L0.282,-0.21L0.022,-0.21Z" style="fill:white;fill-rule:nonzero;"/>
                </g>
                <g transform="matrix(61.426,0,0,61.426,309.601,141)">
                    <path d="M0.424,-0.052L0.404,-0.02C0.362,0.004 0.315,0.015 0.264,0.015C0.192,0.015 0.137,-0.006 0.098,-0.049C0.059,-0.091 0.039,-0.146 0.039,-0.214C0.039,-0.244 0.042,-0.272 0.049,-0.296C0.056,-0.32 0.064,-0.339 0.074,-0.355C0.085,-0.371 0.096,-0.383 0.108,-0.392C0.121,-0.401 0.142,-0.414 0.171,-0.43C0.201,-0.446 0.223,-0.457 0.238,-0.462C0.253,-0.467 0.273,-0.47 0.3,-0.47C0.35,-0.47 0.392,-0.46 0.424,-0.441C0.418,-0.404 0.413,-0.363 0.41,-0.318L0.405,-0.314L0.385,-0.314L0.381,-0.318C0.38,-0.346 0.378,-0.364 0.375,-0.374C0.373,-0.383 0.36,-0.393 0.337,-0.404C0.313,-0.415 0.288,-0.42 0.261,-0.42C0.235,-0.42 0.211,-0.414 0.19,-0.403C0.169,-0.392 0.153,-0.373 0.143,-0.348C0.132,-0.322 0.127,-0.292 0.127,-0.256C0.127,-0.226 0.131,-0.197 0.14,-0.169C0.148,-0.14 0.159,-0.117 0.173,-0.098C0.187,-0.079 0.205,-0.064 0.228,-0.053C0.251,-0.041 0.276,-0.036 0.304,-0.036C0.322,-0.036 0.339,-0.038 0.356,-0.042C0.372,-0.047 0.392,-0.055 0.414,-0.065L0.424,-0.052Z" style="fill:white;fill-rule:nonzero;"/>
                </g>
                <g transform="matrix(61.426,0,0,61.426,336.864,141)">
                    <path d="M0.166,-0.723L0.175,-0.717C0.172,-0.68 0.17,-0.605 0.17,-0.492L0.17,-0.372C0.197,-0.394 0.223,-0.416 0.246,-0.438C0.253,-0.445 0.259,-0.449 0.266,-0.452C0.272,-0.455 0.282,-0.458 0.296,-0.461C0.309,-0.465 0.324,-0.466 0.338,-0.466C0.363,-0.466 0.387,-0.461 0.41,-0.451C0.434,-0.441 0.451,-0.429 0.463,-0.415C0.475,-0.401 0.483,-0.385 0.488,-0.366C0.492,-0.347 0.495,-0.324 0.495,-0.296L0.495,-0.21C0.495,-0.205 0.495,-0.164 0.497,-0.089C0.498,-0.058 0.502,-0.04 0.508,-0.034C0.514,-0.028 0.534,-0.025 0.568,-0.025L0.572,-0.021L0.572,-0L0.568,0.004C0.527,0.001 0.499,-0 0.484,-0C0.476,-0 0.453,0.001 0.413,0.004L0.407,-0.001C0.411,-0.044 0.413,-0.099 0.413,-0.167L0.413,-0.231C0.413,-0.269 0.412,-0.297 0.41,-0.314C0.409,-0.331 0.403,-0.346 0.394,-0.36C0.385,-0.374 0.373,-0.385 0.358,-0.392C0.343,-0.4 0.324,-0.404 0.303,-0.404C0.281,-0.404 0.262,-0.401 0.247,-0.395C0.233,-0.389 0.217,-0.379 0.202,-0.364C0.187,-0.35 0.178,-0.338 0.175,-0.328C0.171,-0.319 0.17,-0.3 0.17,-0.273L0.17,-0.186C0.17,-0.179 0.171,-0.156 0.172,-0.117C0.173,-0.078 0.175,-0.055 0.176,-0.049C0.177,-0.042 0.18,-0.038 0.183,-0.035C0.186,-0.032 0.189,-0.03 0.193,-0.029C0.198,-0.028 0.215,-0.027 0.246,-0.025L0.25,-0.021L0.25,-0L0.247,0.004C0.206,0.001 0.167,-0 0.129,-0C0.091,-0 0.052,0.001 0.012,0.004L0.007,-0L0.007,-0.021L0.012,-0.025C0.043,-0.027 0.061,-0.028 0.065,-0.029C0.069,-0.03 0.073,-0.032 0.076,-0.035C0.079,-0.038 0.081,-0.043 0.082,-0.05C0.083,-0.056 0.085,-0.077 0.086,-0.113C0.088,-0.148 0.088,-0.175 0.088,-0.193L0.088,-0.446L0.086,-0.55C0.085,-0.586 0.084,-0.611 0.083,-0.625C0.082,-0.639 0.081,-0.647 0.079,-0.65C0.077,-0.653 0.073,-0.654 0.068,-0.656C0.063,-0.657 0.044,-0.658 0.009,-0.658L0.005,-0.662L0.005,-0.683L0.009,-0.687C0.071,-0.694 0.123,-0.706 0.166,-0.723Z" style="fill:white;fill-rule:nonzero;"/>
                </g>
                <g transform="matrix(61.426,0,0,61.426,372.616,141)">
                    <path d="M0.104,-0.331L0.084,-0.336L0.081,-0.341L0.081,-0.401C0.139,-0.444 0.195,-0.466 0.25,-0.466C0.287,-0.466 0.318,-0.459 0.343,-0.445C0.368,-0.431 0.385,-0.413 0.396,-0.392C0.408,-0.371 0.413,-0.347 0.413,-0.319L0.411,-0.221L0.411,-0.075C0.411,-0.055 0.412,-0.043 0.415,-0.039C0.418,-0.035 0.421,-0.032 0.424,-0.031C0.428,-0.029 0.435,-0.028 0.444,-0.027L0.472,-0.024L0.476,-0.02L0.476,-0L0.472,0.003C0.448,0.001 0.426,0 0.406,0C0.386,0 0.363,0.001 0.335,0.003L0.328,-0.003L0.33,-0.082L0.224,0.001C0.206,0.008 0.186,0.012 0.165,0.012C0.139,0.012 0.117,0.007 0.098,-0.002C0.079,-0.011 0.065,-0.025 0.055,-0.042C0.045,-0.058 0.04,-0.079 0.04,-0.103C0.04,-0.151 0.055,-0.188 0.085,-0.215C0.115,-0.242 0.197,-0.265 0.33,-0.284C0.33,-0.332 0.319,-0.366 0.298,-0.385C0.276,-0.405 0.248,-0.415 0.211,-0.415C0.193,-0.415 0.175,-0.412 0.16,-0.407C0.144,-0.401 0.136,-0.397 0.133,-0.393C0.131,-0.39 0.122,-0.37 0.107,-0.333L0.104,-0.331ZM0.33,-0.254C0.239,-0.239 0.182,-0.222 0.16,-0.205C0.137,-0.187 0.126,-0.16 0.126,-0.123C0.126,-0.072 0.151,-0.047 0.202,-0.047C0.245,-0.047 0.288,-0.072 0.33,-0.122L0.33,-0.254Z" style="fill:white;fill-rule:nonzero;"/>
                </g>
                <g transform="matrix(61.426,0,0,61.426,403.329,141)">
                    <path d="M0.167,-0.465L0.176,-0.459C0.174,-0.437 0.173,-0.409 0.172,-0.373C0.198,-0.395 0.223,-0.416 0.247,-0.438C0.253,-0.445 0.26,-0.449 0.266,-0.452C0.272,-0.455 0.282,-0.458 0.296,-0.461C0.31,-0.465 0.324,-0.466 0.339,-0.466C0.364,-0.466 0.388,-0.461 0.411,-0.451C0.434,-0.441 0.452,-0.429 0.464,-0.415C0.476,-0.401 0.484,-0.385 0.488,-0.366C0.493,-0.347 0.495,-0.324 0.495,-0.296L0.495,-0.21C0.495,-0.205 0.496,-0.164 0.498,-0.089C0.498,-0.058 0.502,-0.04 0.508,-0.034C0.514,-0.028 0.534,-0.025 0.568,-0.025L0.572,-0.021L0.572,-0L0.568,0.004C0.527,0.001 0.499,-0 0.484,-0C0.476,-0 0.452,0.001 0.413,0.004L0.407,-0.001C0.411,-0.044 0.414,-0.099 0.414,-0.167L0.414,-0.231C0.414,-0.269 0.413,-0.297 0.411,-0.314C0.409,-0.331 0.404,-0.346 0.395,-0.36C0.385,-0.374 0.373,-0.385 0.358,-0.392C0.343,-0.4 0.324,-0.404 0.303,-0.404C0.286,-0.404 0.272,-0.402 0.26,-0.399C0.248,-0.395 0.234,-0.388 0.219,-0.378C0.204,-0.367 0.193,-0.357 0.186,-0.348C0.179,-0.339 0.175,-0.33 0.173,-0.322C0.172,-0.314 0.171,-0.297 0.171,-0.271L0.171,-0.186C0.171,-0.179 0.172,-0.156 0.173,-0.117C0.174,-0.078 0.176,-0.055 0.177,-0.049C0.178,-0.042 0.181,-0.038 0.184,-0.035C0.187,-0.032 0.19,-0.03 0.194,-0.029C0.199,-0.028 0.216,-0.027 0.247,-0.025L0.251,-0.021L0.251,-0L0.248,0.004C0.207,0.001 0.168,-0 0.13,-0C0.092,-0 0.053,0.001 0.013,0.004L0.008,-0L0.008,-0.021L0.013,-0.025C0.044,-0.027 0.062,-0.028 0.066,-0.029C0.07,-0.03 0.074,-0.032 0.077,-0.035C0.08,-0.038 0.082,-0.043 0.083,-0.05C0.084,-0.056 0.086,-0.077 0.087,-0.113C0.089,-0.148 0.089,-0.175 0.089,-0.193L0.089,-0.29C0.089,-0.303 0.089,-0.32 0.087,-0.343C0.086,-0.365 0.085,-0.379 0.084,-0.384C0.083,-0.389 0.081,-0.393 0.077,-0.396C0.072,-0.398 0.064,-0.399 0.051,-0.399L0.01,-0.4L0.006,-0.404L0.006,-0.425L0.01,-0.429C0.072,-0.436 0.124,-0.448 0.167,-0.465Z" style="fill:white;fill-rule:nonzero;"/>
                </g>
            </g>
            <g transform="matrix(0.589234,0,0,0.589234,267.037,231.331)">
                <g transform="matrix(61.426,0,0,61.426,180,141)">
                    <path d="M0.039,-0.168L0.042,-0.172L0.066,-0.172L0.07,-0.168C0.072,-0.126 0.074,-0.101 0.077,-0.092C0.08,-0.082 0.088,-0.073 0.103,-0.062C0.118,-0.052 0.138,-0.044 0.162,-0.037C0.187,-0.031 0.212,-0.027 0.237,-0.027C0.271,-0.027 0.302,-0.034 0.33,-0.046C0.357,-0.059 0.379,-0.078 0.394,-0.102C0.409,-0.127 0.417,-0.154 0.417,-0.185C0.417,-0.207 0.413,-0.225 0.406,-0.241C0.399,-0.257 0.388,-0.27 0.375,-0.28C0.362,-0.289 0.347,-0.296 0.33,-0.301C0.313,-0.306 0.288,-0.311 0.254,-0.316C0.222,-0.322 0.196,-0.326 0.178,-0.331C0.16,-0.335 0.141,-0.341 0.123,-0.35C0.105,-0.359 0.09,-0.37 0.077,-0.384C0.065,-0.397 0.055,-0.414 0.048,-0.433C0.041,-0.453 0.037,-0.474 0.037,-0.497C0.037,-0.557 0.058,-0.607 0.101,-0.646C0.143,-0.685 0.2,-0.705 0.271,-0.705C0.299,-0.705 0.33,-0.701 0.364,-0.694C0.397,-0.687 0.427,-0.677 0.455,-0.663L0.458,-0.657C0.451,-0.627 0.446,-0.585 0.445,-0.529L0.44,-0.525L0.415,-0.525L0.411,-0.529C0.41,-0.568 0.41,-0.592 0.408,-0.603C0.407,-0.613 0.392,-0.625 0.364,-0.64C0.335,-0.655 0.305,-0.663 0.271,-0.663C0.244,-0.663 0.218,-0.657 0.194,-0.646C0.17,-0.635 0.152,-0.618 0.139,-0.594C0.127,-0.57 0.121,-0.546 0.121,-0.521C0.121,-0.502 0.124,-0.485 0.132,-0.47C0.139,-0.455 0.149,-0.443 0.161,-0.435C0.173,-0.426 0.187,-0.42 0.202,-0.416C0.218,-0.411 0.247,-0.406 0.289,-0.4C0.347,-0.392 0.389,-0.382 0.415,-0.37C0.441,-0.359 0.462,-0.34 0.478,-0.315C0.494,-0.29 0.501,-0.26 0.501,-0.225C0.501,-0.155 0.473,-0.097 0.417,-0.051C0.36,-0.005 0.292,0.018 0.211,0.018C0.144,0.018 0.085,0.006 0.034,-0.018L0.031,-0.024C0.035,-0.045 0.037,-0.093 0.039,-0.168Z" style="fill:white;fill-rule:nonzero;"/>
                </g>
                <g transform="matrix(61.426,0,0,61.426,212.243,141)">
                    <path d="M0.432,-0.072L0.416,-0.037C0.382,-0.015 0.352,-0.001 0.325,0.006C0.299,0.012 0.275,0.016 0.254,0.016C0.215,0.016 0.178,0.008 0.143,-0.007C0.108,-0.023 0.08,-0.049 0.058,-0.085C0.036,-0.121 0.025,-0.165 0.025,-0.217C0.025,-0.251 0.029,-0.282 0.038,-0.309C0.046,-0.337 0.055,-0.357 0.064,-0.371C0.073,-0.384 0.089,-0.399 0.111,-0.415C0.133,-0.431 0.157,-0.444 0.182,-0.454C0.206,-0.464 0.233,-0.469 0.262,-0.469C0.301,-0.469 0.335,-0.46 0.365,-0.441C0.395,-0.423 0.416,-0.399 0.428,-0.371C0.44,-0.342 0.446,-0.312 0.446,-0.279C0.446,-0.269 0.445,-0.259 0.444,-0.25L0.439,-0.245C0.417,-0.24 0.387,-0.236 0.35,-0.235C0.312,-0.233 0.287,-0.232 0.275,-0.232L0.119,-0.232C0.119,-0.165 0.136,-0.115 0.169,-0.083C0.203,-0.052 0.243,-0.036 0.292,-0.036C0.314,-0.036 0.336,-0.04 0.357,-0.047C0.378,-0.055 0.4,-0.066 0.424,-0.08L0.432,-0.072ZM0.119,-0.271C0.125,-0.271 0.147,-0.269 0.186,-0.268C0.226,-0.267 0.255,-0.266 0.273,-0.266C0.319,-0.266 0.346,-0.267 0.356,-0.269C0.356,-0.276 0.356,-0.282 0.356,-0.287C0.356,-0.337 0.346,-0.375 0.326,-0.399C0.305,-0.424 0.277,-0.436 0.242,-0.436C0.203,-0.436 0.173,-0.422 0.151,-0.395C0.129,-0.367 0.119,-0.326 0.119,-0.271Z" style="fill:white;fill-rule:nonzero;"/>
                </g>
                <g transform="matrix(61.426,0,0,61.426,241.666,141)">
                    <path d="M0.104,-0.331L0.084,-0.336L0.081,-0.341L0.081,-0.401C0.139,-0.444 0.195,-0.466 0.25,-0.466C0.287,-0.466 0.318,-0.459 0.343,-0.445C0.368,-0.431 0.385,-0.413 0.396,-0.392C0.408,-0.371 0.413,-0.347 0.413,-0.319L0.411,-0.221L0.411,-0.075C0.411,-0.055 0.412,-0.043 0.415,-0.039C0.418,-0.035 0.421,-0.032 0.424,-0.031C0.428,-0.029 0.435,-0.028 0.444,-0.027L0.472,-0.024L0.476,-0.02L0.476,-0L0.472,0.003C0.448,0.001 0.426,0 0.406,0C0.386,0 0.363,0.001 0.335,0.003L0.328,-0.003L0.33,-0.082L0.224,0.001C0.206,0.008 0.186,0.012 0.165,0.012C0.139,0.012 0.117,0.007 0.098,-0.002C0.079,-0.011 0.065,-0.025 0.055,-0.042C0.045,-0.058 0.04,-0.079 0.04,-0.103C0.04,-0.151 0.055,-0.188 0.085,-0.215C0.115,-0.242 0.197,-0.265 0.33,-0.284C0.33,-0.332 0.319,-0.366 0.298,-0.385C0.276,-0.405 0.248,-0.415 0.211,-0.415C0.193,-0.415 0.175,-0.412 0.16,-0.407C0.144,-0.401 0.136,-0.397 0.133,-0.393C0.131,-0.39 0.122,-0.37 0.107,-0.333L0.104,-0.331ZM0.33,-0.254C0.239,-0.239 0.182,-0.222 0.16,-0.205C0.137,-0.187 0.126,-0.16 0.126,-0.123C0.126,-0.072 0.151,-0.047 0.202,-0.047C0.245,-0.047 0.288,-0.072 0.33,-0.122L0.33,-0.254Z" style="fill:white;fill-rule:nonzero;"/>
                </g>
                <g transform="matrix(61.426,0,0,61.426,272.379,141)">
                    <path d="M0.188,-0.465L0.197,-0.459C0.195,-0.44 0.193,-0.407 0.192,-0.358L0.229,-0.405C0.241,-0.42 0.252,-0.432 0.261,-0.44C0.27,-0.448 0.281,-0.455 0.293,-0.459C0.306,-0.464 0.319,-0.466 0.332,-0.466C0.346,-0.466 0.359,-0.463 0.372,-0.458L0.375,-0.451C0.37,-0.407 0.367,-0.369 0.367,-0.336L0.345,-0.336C0.332,-0.366 0.311,-0.381 0.282,-0.381C0.262,-0.381 0.244,-0.375 0.229,-0.362C0.214,-0.349 0.204,-0.333 0.199,-0.314C0.194,-0.294 0.191,-0.27 0.191,-0.24L0.191,-0.186C0.191,-0.176 0.192,-0.152 0.193,-0.114C0.195,-0.076 0.196,-0.054 0.198,-0.048C0.199,-0.042 0.201,-0.038 0.204,-0.035C0.207,-0.033 0.212,-0.031 0.217,-0.03C0.222,-0.029 0.245,-0.027 0.286,-0.025L0.291,-0.021L0.291,-0L0.286,0.004C0.243,0.001 0.198,-0 0.15,-0C0.113,-0 0.074,0.001 0.033,0.004L0.029,-0L0.029,-0.021L0.033,-0.025C0.065,-0.027 0.083,-0.028 0.087,-0.029C0.091,-0.03 0.094,-0.032 0.097,-0.035C0.101,-0.038 0.103,-0.043 0.104,-0.05C0.105,-0.056 0.106,-0.077 0.108,-0.113C0.109,-0.148 0.11,-0.175 0.11,-0.193L0.11,-0.29C0.11,-0.303 0.109,-0.32 0.108,-0.343C0.107,-0.365 0.106,-0.379 0.105,-0.384C0.104,-0.389 0.101,-0.393 0.097,-0.396C0.093,-0.398 0.084,-0.399 0.072,-0.399L0.031,-0.4L0.026,-0.404L0.026,-0.425L0.03,-0.429C0.092,-0.436 0.145,-0.448 0.188,-0.465Z" style="fill:white;fill-rule:nonzero;"/>
                </g>
                <g transform="matrix(61.426,0,0,61.426,296.643,141)">
                    <path d="M0.424,-0.052L0.404,-0.02C0.362,0.004 0.315,0.015 0.264,0.015C0.192,0.015 0.137,-0.006 0.098,-0.049C0.059,-0.091 0.039,-0.146 0.039,-0.214C0.039,-0.244 0.042,-0.272 0.049,-0.296C0.056,-0.32 0.064,-0.339 0.074,-0.355C0.085,-0.371 0.096,-0.383 0.108,-0.392C0.121,-0.401 0.142,-0.414 0.171,-0.43C0.201,-0.446 0.223,-0.457 0.238,-0.462C0.253,-0.467 0.273,-0.47 0.3,-0.47C0.35,-0.47 0.392,-0.46 0.424,-0.441C0.418,-0.404 0.413,-0.363 0.41,-0.318L0.405,-0.314L0.385,-0.314L0.381,-0.318C0.38,-0.346 0.378,-0.364 0.375,-0.374C0.373,-0.383 0.36,-0.393 0.337,-0.404C0.313,-0.415 0.288,-0.42 0.261,-0.42C0.235,-0.42 0.211,-0.414 0.19,-0.403C0.169,-0.392 0.153,-0.373 0.143,-0.348C0.132,-0.322 0.127,-0.292 0.127,-0.256C0.127,-0.226 0.131,-0.197 0.14,-0.169C0.148,-0.14 0.159,-0.117 0.173,-0.098C0.187,-0.079 0.205,-0.064 0.228,-0.053C0.251,-0.041 0.276,-0.036 0.304,-0.036C0.322,-0.036 0.339,-0.038 0.356,-0.042C0.372,-0.047 0.392,-0.055 0.414,-0.065L0.424,-0.052Z" style="fill:white;fill-rule:nonzero;"/>
                </g>
                <g transform="matrix(61.426,0,0,61.426,323.907,141)">
                    <path d="M0.166,-0.723L0.175,-0.717C0.172,-0.68 0.17,-0.605 0.17,-0.492L0.17,-0.372C0.197,-0.394 0.223,-0.416 0.246,-0.438C0.253,-0.445 0.259,-0.449 0.266,-0.452C0.272,-0.455 0.282,-0.458 0.296,-0.461C0.309,-0.465 0.324,-0.466 0.338,-0.466C0.363,-0.466 0.387,-0.461 0.41,-0.451C0.434,-0.441 0.451,-0.429 0.463,-0.415C0.475,-0.401 0.483,-0.385 0.488,-0.366C0.492,-0.347 0.495,-0.324 0.495,-0.296L0.495,-0.21C0.495,-0.205 0.495,-0.164 0.497,-0.089C0.498,-0.058 0.502,-0.04 0.508,-0.034C0.514,-0.028 0.534,-0.025 0.568,-0.025L0.572,-0.021L0.572,-0L0.568,0.004C0.527,0.001 0.499,-0 0.484,-0C0.476,-0 0.453,0.001 0.413,0.004L0.407,-0.001C0.411,-0.044 0.413,-0.099 0.413,-0.167L0.413,-0.231C0.413,-0.269 0.412,-0.297 0.41,-0.314C0.409,-0.331 0.403,-0.346 0.394,-0.36C0.385,-0.374 0.373,-0.385 0.358,-0.392C0.343,-0.4 0.324,-0.404 0.303,-0.404C0.281,-0.404 0.262,-0.401 0.247,-0.395C0.233,-0.389 0.217,-0.379 0.202,-0.364C0.187,-0.35 0.178,-0.338 0.175,-0.328C0.171,-0.319 0.17,-0.3 0.17,-0.273L0.17,-0.186C0.17,-0.179 0.171,-0.156 0.172,-0.117C0.173,-0.078 0.175,-0.055 0.176,-0.049C0.177,-0.042 0.18,-0.038 0.183,-0.035C0.186,-0.032 0.189,-0.03 0.193,-0.029C0.198,-0.028 0.215,-0.027 0.246,-0.025L0.25,-0.021L0.25,-0L0.247,0.004C0.206,0.001 0.167,-0 0.129,-0C0.091,-0 0.052,0.001 0.012,0.004L0.007,-0L0.007,-0.021L0.012,-0.025C0.043,-0.027 0.061,-0.028 0.065,-0.029C0.069,-0.03 0.073,-0.032 0.076,-0.035C0.079,-0.038 0.081,-0.043 0.082,-0.05C0.083,-0.056 0.085,-0.077 0.086,-0.113C0.088,-0.148 0.088,-0.175 0.088,-0.193L0.088,-0.446L0.086,-0.55C0.085,-0.586 0.084,-0.611 0.083,-0.625C0.082,-0.639 0.081,-0.647 0.079,-0.65C0.077,-0.653 0.073,-0.654 0.068,-0.656C0.063,-0.657 0.044,-0.658 0.009,-0.658L0.005,-0.662L0.005,-0.683L0.009,-0.687C0.071,-0.694 0.123,-0.706 0.166,-0.723Z" style="fill:white;fill-rule:nonzero;"/>
                </g>
                <g transform="matrix(61.426,0,0,61.426,359.659,141)">
                    <path d="M0.432,-0.072L0.416,-0.037C0.382,-0.015 0.352,-0.001 0.325,0.006C0.299,0.012 0.275,0.016 0.254,0.016C0.215,0.016 0.178,0.008 0.143,-0.007C0.108,-0.023 0.08,-0.049 0.058,-0.085C0.036,-0.121 0.025,-0.165 0.025,-0.217C0.025,-0.251 0.029,-0.282 0.038,-0.309C0.046,-0.337 0.055,-0.357 0.064,-0.371C0.073,-0.384 0.089,-0.399 0.111,-0.415C0.133,-0.431 0.157,-0.444 0.182,-0.454C0.206,-0.464 0.233,-0.469 0.262,-0.469C0.301,-0.469 0.335,-0.46 0.365,-0.441C0.395,-0.423 0.416,-0.399 0.428,-0.371C0.44,-0.342 0.446,-0.312 0.446,-0.279C0.446,-0.269 0.445,-0.259 0.444,-0.25L0.439,-0.245C0.417,-0.24 0.387,-0.236 0.35,-0.235C0.312,-0.233 0.287,-0.232 0.275,-0.232L0.119,-0.232C0.119,-0.165 0.136,-0.115 0.169,-0.083C0.203,-0.052 0.243,-0.036 0.292,-0.036C0.314,-0.036 0.336,-0.04 0.357,-0.047C0.378,-0.055 0.4,-0.066 0.424,-0.08L0.432,-0.072ZM0.119,-0.271C0.125,-0.271 0.147,-0.269 0.186,-0.268C0.226,-0.267 0.255,-0.266 0.273,-0.266C0.319,-0.266 0.346,-0.267 0.356,-0.269C0.356,-0.276 0.356,-0.282 0.356,-0.287C0.356,-0.337 0.346,-0.375 0.326,-0.399C0.305,-0.424 0.277,-0.436 0.242,-0.436C0.203,-0.436 0.173,-0.422 0.151,-0.395C0.129,-0.367 0.119,-0.326 0.119,-0.271Z" style="fill:white;fill-rule:nonzero;"/>
                </g>
                <g transform="matrix(61.426,0,0,61.426,389.082,141)">
                    <path d="M0.188,-0.465L0.197,-0.459C0.195,-0.44 0.193,-0.407 0.192,-0.358L0.229,-0.405C0.241,-0.42 0.252,-0.432 0.261,-0.44C0.27,-0.448 0.281,-0.455 0.293,-0.459C0.306,-0.464 0.319,-0.466 0.332,-0.466C0.346,-0.466 0.359,-0.463 0.372,-0.458L0.375,-0.451C0.37,-0.407 0.367,-0.369 0.367,-0.336L0.345,-0.336C0.332,-0.366 0.311,-0.381 0.282,-0.381C0.262,-0.381 0.244,-0.375 0.229,-0.362C0.214,-0.349 0.204,-0.333 0.199,-0.314C0.194,-0.294 0.191,-0.27 0.191,-0.24L0.191,-0.186C0.191,-0.176 0.192,-0.152 0.193,-0.114C0.195,-0.076 0.196,-0.054 0.198,-0.048C0.199,-0.042 0.201,-0.038 0.204,-0.035C0.207,-0.033 0.212,-0.031 0.217,-0.03C0.222,-0.029 0.245,-0.027 0.286,-0.025L0.291,-0.021L0.291,-0L0.286,0.004C0.243,0.001 0.198,-0 0.15,-0C0.113,-0 0.074,0.001 0.033,0.004L0.029,-0L0.029,-0.021L0.033,-0.025C0.065,-0.027 0.083,-0.028 0.087,-0.029C0.091,-0.03 0.094,-0.032 0.097,-0.035C0.101,-0.038 0.103,-0.043 0.104,-0.05C0.105,-0.056 0.106,-0.077 0.108,-0.113C0.109,-0.148 0.11,-0.175 0.11,-0.193L0.11,-0.29C0.11,-0.303 0.109,-0.32 0.108,-0.343C0.107,-0.365 0.106,-0.379 0.105,-0.384C0.104,-0.389 0.101,-0.393 0.097,-0.396C0.093,-0.398 0.084,-0.399 0.072,-0.399L0.031,-0.4L0.026,-0.404L0.026,-0.425L0.03,-0.429C0.092,-0.436 0.145,-0.448 0.188,-0.465Z" style="fill:white;fill-rule:nonzero;"/>
                </g>
            </g>
            <g transform="matrix(0.932287,-0.932287,0.932287,0.932287,-275.092,21.121)">
                <g transform="matrix(1,0,0,1,-10,60)">
                    <g transform="matrix(1.42255,0,0,1.42255,38.2298,-124.888)">
                        <circle cx="103.383" cy="358.617" r="15.383" style="fill:rgb(235,235,235);fill-opacity:0;stroke:white;stroke-width:4.66px;"/>
                    </g>
                    <g transform="matrix(1.31742,0.760614,-0.666281,1.15403,207.346,-175.365)">
                        <path d="M173.014,344L179.028,356.028L167,356.028L173.014,344Z" style="fill:white;"/>
                    </g>
                    <g transform="matrix(-1.31742,0.760614,0.666281,1.15403,163.248,-175.365)">
                        <path d="M173.014,344L179.028,356.028L167,356.028L173.014,344Z" style="fill:white;"/>
                    </g>
                </g>
                <g transform="matrix(1,0,0,0.646323,-10.7029,223.397)">
                    <rect x="181" y="377" width="10" height="34" style="fill:white;"/>
                </g>
            </g>
            <g transform="matrix(1,0,0,1,0,-3)">
                <path d="M343,288.239L545.8,288.239" style="fill:none;stroke:white;stroke-width:0.71px;"/>
            </g>
        </g>
    </g>
</svg>
